<svg width="42" height="42" viewBox="0 0 42 42" fill="none" xmlns="http://www.w3.org/2000/svg">
<g clip-path="url(#clip0_384_1897)">
<path d="M34.125 0H7.875C3.52576 0 0 3.52576 0 7.875V34.125C0 38.4742 3.52576 42 7.875 42H34.125C38.4742 42 42 38.4742 42 34.125V7.875C42 3.52576 38.4742 0 34.125 0Z" fill="black"/>
<path d="M18.1333 21.062C18.1333 21.062 20.4367 20.2059 20.4367 17.223C20.4367 14.24 18.4634 13 15.8298 13H7V29.8919H15.8298C15.8298 29.8919 20.8206 29.8919 20.8206 24.9011C20.8206 24.9011 20.8206 21.062 18.1333 21.062ZM10.8391 16.0712H15.8298C15.8298 16.0712 16.9816 16.0712 16.9816 17.6069C16.9816 19.3421 16.2137 19.5264 15.4459 19.5264H10.8391V16.0712ZM15.4459 26.8206H10.8391V22.5977L15.6724 22.5708C15.6724 22.5708 17.3655 22.5977 17.3655 24.9011C17.3655 26.8206 16.1408 26.8014 15.4459 26.8206ZM28.7944 17.1769C22.387 17.1769 22.3908 23.5805 22.3908 23.5805C22.3908 23.5805 22.0376 29.8919 28.8827 29.8919C28.8827 29.8919 34.6412 30.4255 34.6412 25.6689H31.57C31.57 25.6689 31.6621 27.312 28.8827 27.312C28.8827 27.312 25.8114 27.6153 25.8114 24.5172H34.6412C34.6412 24.5172 35.5396 17.1769 28.7944 17.1769ZM31.57 22.2137H25.8114C25.8114 22.2137 26.2875 19.6185 28.8596 19.6185C31.4318 19.6185 31.57 22.2137 31.57 22.2137ZM25.0436 13.7678H32.3378V16.0712H25.0436V13.7678Z" fill="white"/>
</g>
<defs>
<clipPath id="clip0_384_1897">
<rect width="42" height="42" fill="white"/>
</clipPath>
</defs>
</svg>
