<svg width="42" height="42" viewBox="0 0 42 42" fill="none" xmlns="http://www.w3.org/2000/svg">
<rect width="42" height="42" rx="21" fill="white"/>
<path d="M28.0432 32.522C27.0619 32.522 25.6834 32.1671 23.6192 31.0138C21.109 29.6062 19.1675 28.3066 16.6709 25.8166C14.2638 23.411 13.0924 21.8535 11.453 18.8703C9.60092 15.502 9.91664 13.7364 10.2696 12.9818C10.6898 12.0798 11.3102 11.5404 12.1121 11.005C12.5675 10.7066 13.0495 10.4508 13.5519 10.2408C13.6022 10.2192 13.6489 10.1986 13.6907 10.18C13.9395 10.0679 14.3166 9.89848 14.7942 10.0795C15.1129 10.1991 15.3974 10.444 15.8429 10.8838C16.7563 11.7847 18.0046 13.7912 18.4651 14.7765C18.7743 15.4406 18.9789 15.879 18.9794 16.3707C18.9794 16.9463 18.6899 17.3902 18.3384 17.8693C18.2726 17.9593 18.2072 18.0453 18.1439 18.1287C17.7613 18.6315 17.6773 18.7768 17.7326 19.0362C17.8448 19.5575 18.6808 21.1095 20.0548 22.4804C21.4288 23.8514 22.9359 24.6346 23.4593 24.7462C23.7298 24.8041 23.8781 24.7166 24.3969 24.3204C24.4713 24.2636 24.5477 24.2048 24.6276 24.146C25.1636 23.7473 25.5869 23.4653 26.1489 23.4653H26.1519C26.6411 23.4653 27.0599 23.6774 27.7536 24.0273C28.6586 24.4838 30.7253 25.716 31.6317 26.6305C32.0726 27.0749 32.3185 27.3584 32.4386 27.6767C32.6196 28.1558 32.4492 28.5313 32.3381 28.7827C32.3195 28.8244 32.2989 28.8702 32.2773 28.9209C32.0656 29.4224 31.8083 29.9034 31.5086 30.3578C30.9742 31.1571 30.4327 31.776 29.5288 32.1968C29.0647 32.4163 28.5567 32.5276 28.0432 32.522Z" fill="black"/>
</svg>
