<svg width="42" height="42" viewBox="0 0 42 42" fill="none" xmlns="http://www.w3.org/2000/svg">
<g clip-path="url(#clip0_384_1893)">
<path d="M10.6503 41.8514C9.02577 41.8332 7.41651 41.5353 5.89318 40.9706C4.78077 40.5594 3.77432 39.9048 2.94741 39.0546C2.09496 38.2294 1.4394 37.2227 1.02941 36.1093C0.465192 34.586 0.167663 32.9769 0.149882 31.3526C0.0251176 28.6522 0 27.8423 0 21C0 14.1577 0.0275882 13.3506 0.148647 10.6482C0.168586 9.02455 0.466481 7.41628 1.02941 5.89318C1.44139 4.78059 2.09603 3.77374 2.94576 2.94576C3.77165 2.09408 4.77857 1.43913 5.89194 1.02941C7.41528 0.464725 9.02453 0.166776 10.6491 0.148647C13.3502 0.0251176 14.1614 0 21 0C27.8386 0 28.6494 0.0275882 31.3518 0.148647C32.9759 0.168445 34.5846 0.466342 36.1081 1.02941C37.2209 1.43967 38.2276 2.0944 39.0538 2.94535C39.905 3.77186 40.56 4.77877 40.9706 5.89194C41.5354 7.41525 41.8335 9.02451 41.8518 10.6491C41.9753 13.3515 42.0004 14.1606 42.0004 21.0008C42.0004 27.8411 41.9753 28.6502 41.8518 31.3526C41.8322 32.9769 41.5341 34.5858 40.9706 36.1093C40.5443 37.2141 39.8914 38.2175 39.054 39.0547C38.2165 39.892 37.213 40.5446 36.1081 40.9706C34.5847 41.5354 32.9755 41.8335 31.3509 41.8518C28.651 41.9753 27.8394 42.0004 20.9992 42.0004C14.1589 42.0004 13.3498 41.9765 10.6499 41.8518" fill="url(#paint0_radial_384_1893)"/>
<path d="M10.6503 41.8514C9.02577 41.8332 7.41651 41.5353 5.89318 40.9706C4.78077 40.5594 3.77432 39.9048 2.94741 39.0546C2.09496 38.2294 1.4394 37.2227 1.02941 36.1093C0.465192 34.586 0.167663 32.9769 0.149882 31.3526C0.0251176 28.6522 0 27.8423 0 21C0 14.1577 0.0275882 13.3506 0.148647 10.6482C0.168586 9.02455 0.466481 7.41628 1.02941 5.89318C1.44139 4.78059 2.09603 3.77374 2.94576 2.94576C3.77165 2.09408 4.77857 1.43913 5.89194 1.02941C7.41528 0.464725 9.02453 0.166776 10.6491 0.148647C13.3502 0.0251176 14.1614 0 21 0C27.8386 0 28.6494 0.0275882 31.3518 0.148647C32.9759 0.168445 34.5846 0.466342 36.1081 1.02941C37.2209 1.43967 38.2276 2.0944 39.0538 2.94535C39.905 3.77186 40.56 4.77877 40.9706 5.89194C41.5354 7.41525 41.8335 9.02451 41.8518 10.6491C41.9753 13.3515 42.0004 14.1606 42.0004 21.0008C42.0004 27.8411 41.9753 28.6502 41.8518 31.3526C41.8322 32.9769 41.5341 34.5858 40.9706 36.1093C40.5443 37.2141 39.8914 38.2175 39.054 39.0547C38.2165 39.892 37.213 40.5446 36.1081 40.9706C34.5847 41.5354 32.9755 41.8335 31.3509 41.8518C28.651 41.9753 27.8394 42.0004 20.9992 42.0004C14.1589 42.0004 13.3498 41.9765 10.6499 41.8518" fill="url(#paint1_radial_384_1893)"/>
<path d="M15.8442 21.0892C15.8443 20.0606 16.1494 19.055 16.721 18.1997C17.2926 17.3445 18.105 16.6779 19.0554 16.2844C20.0058 15.8908 21.0516 15.7879 22.0605 15.9887C23.0693 16.1895 23.996 16.685 24.7233 17.4124C25.4506 18.1399 25.9459 19.0667 26.1464 20.0756C26.347 21.0846 26.2438 22.1303 25.8501 23.0806C25.4563 24.031 24.7895 24.8432 23.9341 25.4145C23.0787 25.9859 22.0731 26.2908 21.0444 26.2906C19.6651 26.2904 18.3423 25.7423 17.3671 24.7669C16.3919 23.7914 15.8441 22.4686 15.8442 21.0892ZM13.0323 21.0892C13.0323 22.6739 13.5022 24.2229 14.3826 25.5405C15.263 26.8581 16.5143 27.885 17.9783 28.4915C19.4423 29.0979 21.0533 29.2566 22.6075 28.9474C24.1617 28.6383 25.5893 27.8752 26.7098 26.7547C27.8303 25.6341 28.5934 24.2065 28.9026 22.6523C29.2117 21.0981 29.0531 19.4872 28.4466 18.0231C27.8402 16.5591 26.8133 15.3078 25.4957 14.4274C24.1781 13.547 22.6291 13.0771 21.0444 13.0771C19.9922 13.0771 18.9503 13.2843 17.9782 13.6869C17.0061 14.0895 16.1229 14.6797 15.3789 15.4237C14.6349 16.1677 14.0447 17.051 13.6421 18.0231C13.2394 18.9952 13.0322 20.0371 13.0323 21.0892ZM27.5013 12.7596C27.5011 13.13 27.6108 13.492 27.8164 13.8C28.022 14.108 28.3143 14.3481 28.6563 14.4899C28.9984 14.6318 29.3748 14.669 29.738 14.597C30.1013 14.5249 30.435 14.3467 30.6969 14.085C30.9589 13.8232 31.1373 13.4897 31.2097 13.1265C31.2821 12.7634 31.2452 12.3869 31.1037 12.0447C30.9621 11.7026 30.7223 11.41 30.4145 11.2042C30.1067 10.9983 29.7447 10.8883 29.3744 10.8882C28.8781 10.8884 28.4021 11.0856 28.051 11.4365C27.7 11.7874 27.5025 12.2633 27.5021 12.7596M14.7415 33.7901C13.7521 33.7792 12.7719 33.5982 11.8439 33.2548C11.1709 32.9954 10.5597 32.598 10.0496 32.0881C9.53949 31.5782 9.14179 30.9671 8.88211 30.2942C8.53861 29.3663 8.35753 28.3861 8.34682 27.3966C8.27105 25.7521 8.25623 25.2579 8.25623 21.0913C8.25623 16.9246 8.2727 16.4318 8.34682 14.7855C8.35882 13.7962 8.53986 12.8162 8.88211 11.8879C9.14149 11.2147 9.53907 10.6034 10.0492 10.0932C10.5593 9.58308 11.1707 9.1855 11.8439 8.92612C12.7719 8.58262 13.7521 8.40154 14.7415 8.39083C16.3861 8.31506 16.8802 8.30024 21.0452 8.30024C25.2102 8.30024 25.7048 8.3163 27.351 8.39124C28.3403 8.40324 29.3203 8.58428 30.2486 8.92653C30.9218 9.18593 31.5331 9.58352 32.0433 10.0937C32.5534 10.6038 32.951 11.2152 33.2104 11.8884C33.5539 12.8163 33.735 13.7965 33.7457 14.7859C33.8215 16.433 33.8363 16.9246 33.8363 21.0917C33.8363 25.2588 33.8211 25.7512 33.7457 27.3975C33.7342 28.3868 33.5531 29.3669 33.2104 30.2951C32.9507 30.9679 32.553 31.579 32.0429 32.0889C31.5328 32.5988 30.9216 32.9962 30.2486 33.2556C29.3206 33.5991 28.3404 33.7802 27.351 33.7909C25.7064 33.8667 25.2123 33.8815 21.0452 33.8815C16.8782 33.8815 16.3857 33.8663 14.7415 33.7909M14.6122 5.58135C13.3176 5.60681 12.0366 5.85186 10.824 6.30606C9.78738 6.70686 8.84595 7.31985 8.06007 8.10573C7.2742 8.89161 6.66121 9.83303 6.26041 10.8696C5.80627 12.0823 5.56122 13.3632 5.5357 14.6579C5.4587 16.3214 5.44141 16.8534 5.44141 21.0909C5.44141 25.3284 5.45911 25.8599 5.5357 27.5239C5.56121 28.8185 5.80626 30.0995 6.26041 31.3121C6.66123 32.3487 7.27423 33.2901 8.0601 34.076C8.84598 34.8619 9.78739 35.4749 10.824 35.8757C12.0367 36.3297 13.3176 36.5747 14.6122 36.6004C16.2766 36.6762 16.8078 36.6947 21.0452 36.6947C25.2827 36.6947 25.8143 36.677 27.4782 36.6004C28.7729 36.5748 30.0538 36.3298 31.2665 35.8757C32.3031 35.4749 33.2445 34.8619 34.0304 34.076C34.8162 33.2901 35.4292 32.3487 35.8301 31.3121C36.2848 30.0996 36.5299 28.8186 36.5548 27.5239C36.6305 25.8591 36.6478 25.3284 36.6478 21.0909C36.6478 16.8534 36.6301 16.3218 36.5548 14.6579C36.5293 13.3632 36.2843 12.0823 35.8301 10.8696C35.4293 9.83323 34.8164 8.89195 34.0308 8.10609C33.2451 7.32024 32.304 6.70714 31.2677 6.30606C30.0551 5.85157 28.7742 5.60651 27.4795 5.58135C25.8155 5.50518 25.2839 5.48706 21.0473 5.48706C16.8106 5.48706 16.2778 5.50477 14.6131 5.58135" fill="white"/>
</g>
<defs>
<radialGradient id="paint0_radial_384_1893" cx="0" cy="0" r="1" gradientUnits="userSpaceOnUse" gradientTransform="translate(2.71806 41.0801) scale(53.3244)">
<stop offset="0.09" stop-color="#FA8F21"/>
<stop offset="0.78" stop-color="#D82D7E"/>
</radialGradient>
<radialGradient id="paint1_radial_384_1893" cx="0" cy="0" r="1" gradientUnits="userSpaceOnUse" gradientTransform="translate(29.092 39.7312) scale(46.9259)">
<stop offset="0.64" stop-color="#8C3AAA" stop-opacity="0"/>
<stop offset="1" stop-color="#8C3AAA"/>
</radialGradient>
<clipPath id="clip0_384_1893">
<rect width="42" height="42" fill="white"/>
</clipPath>
</defs>
</svg>
