<svg width="24" height="24" viewBox="0 0 24 24" fill="none" xmlns="http://www.w3.org/2000/svg">
<path d="M17.9996 6H8.28711C8.0882 6 7.89743 5.92098 7.75678 5.78033C7.61613 5.63968 7.53711 5.44891 7.53711 5.25C7.53711 5.05109 7.61613 4.86032 7.75678 4.71967C7.89743 4.57902 8.0882 4.5 8.28711 4.5H18.7496C18.9485 4.5 19.1393 4.57902 19.2799 4.71967C19.4206 4.86032 19.4996 5.05109 19.4996 5.25V15.75C19.4996 15.9489 19.4206 16.1397 19.2799 16.2803C19.1393 16.421 18.9485 16.5 18.7496 16.5C18.5507 16.5 18.3599 16.421 18.2193 16.2803C18.0786 16.1397 17.9996 15.9489 17.9996 15.75V6Z" fill="white"/>
<path d="M18.2199 4.71897C18.3608 4.57814 18.5518 4.49902 18.7509 4.49902C18.9501 4.49902 19.1411 4.57814 19.2819 4.71897C19.4228 4.8598 19.5019 5.05081 19.5019 5.24997C19.5019 5.44913 19.4228 5.64014 19.2819 5.78097L6.53195 18.531C6.46222 18.6007 6.37943 18.656 6.28832 18.6938C6.19721 18.7315 6.09956 18.7509 6.00095 18.7509C5.90233 18.7509 5.80468 18.7315 5.71357 18.6938C5.62246 18.656 5.53968 18.6007 5.46995 18.531C5.40022 18.4612 5.3449 18.3785 5.30716 18.2873C5.26942 18.1962 5.25 18.0986 5.25 18C5.25 17.9014 5.26942 17.8037 5.30716 17.7126C5.3449 17.6215 5.40022 17.5387 5.46995 17.469L18.2199 4.71897Z" fill="white"/>
</svg>
