<svg width="42" height="42" viewBox="0 0 42 42" fill="none" xmlns="http://www.w3.org/2000/svg">
<g clip-path="url(#clip0_384_1900)">
<path d="M32.5729 0H9.42709C4.22065 0 0 4.22065 0 9.42709V32.5729C0 37.7793 4.22065 42 9.42709 42H32.5729C37.7793 42 42 37.7793 42 32.5729V9.42709C42 4.22065 37.7793 0 32.5729 0Z" fill="#0B86CA"/>
<path d="M11.6376 17.4575H16.002V31.54H11.6376V17.4575ZM13.8634 10.46C14.3635 10.46 14.8523 10.6081 15.2682 10.8856C15.6842 11.1631 16.0086 11.5576 16.2007 12.0193C16.3927 12.481 16.4436 12.9892 16.3471 13.4798C16.2506 13.9705 16.011 14.4215 15.6584 14.7761C15.3059 15.1307 14.8562 15.3729 14.3661 15.4722C13.876 15.5715 13.3675 15.5235 12.9048 15.3341C12.442 15.1448 12.0456 14.8226 11.7657 14.4082C11.4858 13.9939 11.3349 13.5059 11.3321 13.0059C11.3302 12.6722 11.3942 12.3415 11.5206 12.0327C11.6469 11.7239 11.8331 11.4431 12.0683 11.2065C12.3036 10.9699 12.5833 10.7822 12.8913 10.654C13.1994 10.5259 13.5298 10.46 13.8634 10.46ZM18.7952 17.4575H22.9995V19.3779C23.4204 18.6596 24.0284 18.0692 24.7586 17.6694C25.4888 17.2697 26.3139 17.0758 27.1457 17.1084C31.5101 17.1084 32.3975 20.018 32.3975 23.815V31.54H28.0331V24.7315C28.0331 23.1022 28.0331 20.9927 25.7637 20.9927C23.4942 20.9927 23.145 22.7675 23.145 24.6006V31.5691H18.7806L18.7952 17.4575Z" fill="white"/>
</g>
<defs>
<clipPath id="clip0_384_1900">
<rect width="42" height="42" fill="white"/>
</clipPath>
</defs>
</svg>
