<svg width="42" height="42" viewBox="0 0 42 42" fill="none" xmlns="http://www.w3.org/2000/svg">
<rect width="42" height="42" rx="21" fill="white"/>
<path d="M20.575 20.6375C19.7628 20.6375 18.9838 20.3148 18.4095 19.7405C17.8352 19.1662 17.5125 18.3872 17.5125 17.575C17.5125 16.7628 17.8352 15.9838 18.4095 15.4095C18.9838 14.8352 19.7628 14.5125 20.575 14.5125C21.3872 14.5125 22.1662 14.8352 22.7405 15.4095C23.3148 15.9838 23.6375 16.7628 23.6375 17.575C23.6375 17.9772 23.5583 18.3754 23.4044 18.747C23.2505 19.1185 23.0249 19.4561 22.7405 19.7405C22.4561 20.0249 22.1185 20.2505 21.747 20.4044C21.3754 20.5583 20.9772 20.6375 20.575 20.6375ZM20.575 9C18.3008 9 16.1197 9.90343 14.5116 11.5116C12.9034 13.1197 12 15.3008 12 17.575C12 24.0063 20.575 33.5 20.575 33.5C20.575 33.5 29.15 24.0063 29.15 17.575C29.15 15.3008 28.2466 13.1197 26.6384 11.5116C25.0303 9.90343 22.8492 9 20.575 9Z" fill="black"/>
</svg>
